<?xml version="1.0" encoding="UTF-8" standalone="no"?>
<!-- Generator: Adobe Illustrator 15.1.0, SVG Export Plug-In . SVG Version: 6.00 Build 0)  -->
<svg xmlns:dc="http://purl.org/dc/elements/1.1/" xmlns:cc="http://creativecommons.org/ns#" xmlns:rdf="http://www.w3.org/1999/02/22-rdf-syntax-ns#" xmlns:svg="http://www.w3.org/2000/svg" xmlns="http://www.w3.org/2000/svg" xmlns:sodipodi="http://sodipodi.sourceforge.net/DTD/sodipodi-0.dtd" xmlns:inkscape="http://www.inkscape.org/namespaces/inkscape" version="1.1" id="svg2" x="0px" y="0px" width="721px" height="506px" viewBox="0 0 721 506" enable-background="new 0 0 721 506" xml:space="preserve" inkscape:version="0.48.2 r9819" sodipodi:docname="Political_System_of_the_United_States.svg"><metadata id="metadata322"><rdf:RDF><cc:Work rdf:about=""><dc:format>image/svg+xml</dc:format><dc:type rdf:resource="http://purl.org/dc/dcmitype/StillImage"/></cc:Work></rdf:RDF></metadata><defs id="defs320"/><sodipodi:namedview pagecolor="#ffffff" bordercolor="#666666" borderopacity="1" objecttolerance="10" gridtolerance="10" guidetolerance="10" inkscape:pageopacity="0" inkscape:pageshadow="2" inkscape:window-width="1360" inkscape:window-height="700" id="namedview318" showgrid="false" inkscape:zoom="1.1454934" inkscape:cx="360.5" inkscape:cy="253" inkscape:window-x="-8" inkscape:window-y="-8" inkscape:window-maximized="1" inkscape:current-layer="svg2"/>
<line fill="none" stroke="#00B050" stroke-width="2" stroke-miterlimit="10" x1="284" y1="58.409" x2="284" y2="285.167" id="line3"/>
<rect id="rect169" x="582" y="318" fill="#93C5FB" stroke="#4E9FF8" stroke-width="2" stroke-miterlimit="10" width="125" height="27"/>
<text id="text263" transform="matrix(1 0 0 1 404.3342 210.5)" font-family="'Liberation Sans','LiberationSans-Regular',Arial,sans-serif" font-size="7.2367">2</text>

<text id="text203" transform="matrix(1 0 0 1 613.2454 335.3271)" font-family="'Liberation Sans','LiberationSans-Regular',Arial,sans-serif" font-size="13">Governors</text>

<text id="text217" transform="matrix(1 0 0 1 366.6936 425.4814)" font-family="'Liberation Sans','LiberationSans-Regular',Arial,sans-serif" font-size="9">1: Elections are every 2 years. Apportionment is based on each states‘ population</text>

<text id="text219" transform="matrix(1 0 0 1 367.0237 437.0566)" font-family="'Liberation Sans','LiberationSans-Regular',Arial,sans-serif" font-size="9">2: Each state is represented with 2 senators. Senators serve 6-year-terms, </text>

<text id="text221" transform="matrix(1 0 0 1 366.9963 461.7021)" font-family="'Liberation Sans','LiberationSans-Regular',Arial,sans-serif" font-size="9">3: Head of state and government, as well as commander-in-chief</text>

<text id="text223" transform="matrix(1 0 0 1 367.2424 473.3467)" font-family="'Liberation Sans','LiberationSans-Regular',Arial,sans-serif" font-size="9">4: The state levels can vary from state to state</text>

<g id="polyline227">
	<g id="g13">
		
			<line fill="none" stroke="#8E8E8E" stroke-width="2" stroke-miterlimit="10" x1="532.278" y1="258.333" x2="532.278" y2="255.431" id="line15"/>
		
			<line fill="none" stroke="#8E8E8E" stroke-width="2" stroke-miterlimit="10" stroke-dasharray="10.3846,10.3846" x1="532.278" y1="249.746" x2="532.278" y2="195.745" id="line17"/>
		<polyline fill="none" stroke="#8E8E8E" stroke-width="2" stroke-miterlimit="10" points="532.278,192.902 532.278,190     537.577,190   " id="polyline19"/>
		
			<line fill="none" stroke="#8E8E8E" stroke-width="2" stroke-miterlimit="10" stroke-dasharray="11.008,11.008" x1="548.587" y1="190" x2="697.195" y2="190" id="line21"/>
		<line fill="none" stroke="#8E8E8E" stroke-width="2" stroke-miterlimit="10" x1="702.698" y1="190" x2="708" y2="190" id="line23"/>
	</g>
</g>
<text id="text249" transform="matrix(1 0 0 1 544.0842 204.334)" fill="#7F7F7F" font-family="'Liberation Sans','LiberationSans-Regular',Arial,sans-serif" font-size="11">State</text>

<text id="text255" transform="matrix(1 0 0 1 573.0002 200.5518)" fill="#7F7F7F" font-family="'Liberation Sans','LiberationSans-Regular',Arial,sans-serif" font-size="6.9811">4</text>

<text id="text251" transform="matrix(1 0 0 1 541.4417 183.334)" fill="#7F7F7F" font-family="'Liberation Sans','LiberationSans-Regular',Arial,sans-serif" font-size="11">Federal</text>

<rect id="rect273" x="21" y="418.796" fill="#FDE2AD" stroke="#FDAB3D" stroke-width="2" stroke-miterlimit="10" width="29" height="13"/>
<text id="text279" transform="matrix(1 0 0 1 57.0115 428.3301)" font-family="'Liberation Sans','LiberationSans-Regular',Arial,sans-serif" font-size="11">Legislative branch</text>

<text id="text285" transform="matrix(1 0 0 1 194.718 428.3301)" font-family="'Liberation Sans','LiberationSans-Regular',Arial,sans-serif" font-size="11">elects</text>

<g id="g135" transform="translate(0,-0.60974204)">
	
		<line id="line295" fill="none" stroke="#00B050" stroke-width="2" stroke-miterlimit="10" x1="165.22" y1="426.005" x2="179.246" y2="426.005"/>
	<polygon id="polygon299" fill="#00B050" points="175.78,421.129 187.72,426.005 175.78,430.884 178.613,426.005  "/>
</g>
<rect id="rect275" x="21" y="441.296" fill="#93C5FB" stroke="#4E9FF8" stroke-width="2" stroke-miterlimit="10" width="29" height="13"/>
<text id="text281" transform="matrix(1 0 0 1 57.0115 450.8301)" font-family="'Liberation Sans','LiberationSans-Regular',Arial,sans-serif" font-size="11">Executive branch</text>

<text id="text287" transform="matrix(1 0 0 1 194.5725 444.8301)" font-family="'Liberation Sans','LiberationSans-Regular',Arial,sans-serif" font-size="11">appoints or controls</text>

<g id="g139" transform="translate(0,-0.4437561)">
	
		<line id="line305" fill="none" stroke="#298BF7" stroke-width="2" stroke-miterlimit="10" x1="165.22" y1="442.339" x2="179.246" y2="442.339"/>
	<polygon id="polygon309" fill="#298BF7" points="175.78,437.463 187.72,442.339 175.78,447.218 178.613,442.339  "/>
</g>
<rect id="rect277" x="21" y="463.796" fill="#BFBFBF" stroke="#7F7F7F" stroke-width="2" stroke-miterlimit="10" width="29" height="13"/>
<text id="text283" transform="matrix(1 0 0 1 56.6604 473.373)" font-family="'Liberation Sans','LiberationSans-Regular',Arial,sans-serif" font-size="11">Judicial branch</text>

<text id="text289" transform="matrix(1 0 0 1 194.5725 462.373)" font-family="'Liberation Sans','LiberationSans-Regular',Arial,sans-serif" font-size="11">veto-power / can repeal</text>

<g id="g143" transform="translate(0,-0.56677246)">
	
		<line id="line315" fill="none" stroke="#D53939" stroke-width="2" stroke-miterlimit="10" x1="165.22" y1="460.005" x2="179.246" y2="460.005"/>
	<polygon id="polygon319" fill="#D53939" points="175.78,455.129 187.72,460.005 175.78,464.884 178.613,460.005  "/>
</g>
<rect id="rect169_1_" x="310.334" y="112" fill="#93C5FB" stroke="#4E9FF8" stroke-width="2" stroke-miterlimit="10" width="125" height="27"/>
<text id="text203_2_" transform="matrix(1 0 0 1 346.5188 129.3271)" font-family="'Liberation Sans','LiberationSans-Regular',Arial,sans-serif" font-size="13">Cabinet</text>

<rect id="rect169_2_" x="309.334" y="150" fill="#93C5FB" stroke="#4E9FF8" stroke-width="2" stroke-miterlimit="10" width="125" height="27"/>
<text id="text203_3_" transform="matrix(1 0 0 1 327.1077 167.3271)" font-family="'Liberation Sans','LiberationSans-Regular',Arial,sans-serif" font-size="13">Armed Forces</text>

<rect id="rect169_3_" x="309.334" y="187" fill="#93C5FB" stroke="#4E9FF8" stroke-width="2" stroke-miterlimit="10" width="125" height="27"/>
<text id="text203_4_" transform="matrix(1 0 0 1 323.9602 205.3271)" font-family="'Liberation Sans','LiberationSans-Regular',Arial,sans-serif" font-size="13">Executive Office</text>

<g id="g52">
	<g id="g54">
		<line fill="none" stroke="#00B050" stroke-width="2" stroke-miterlimit="10" x1="119" y1="174.385" x2="119" y2="374.25" id="line56"/>
		<g id="g58">
			<polygon fill="#00B050" points="119,164.5 113.309,178.429 119,175.124 124.691,178.429    " id="polygon60"/>
		</g>
	</g>
</g>
<line fill="none" stroke="#9900CC" stroke-width="2" stroke-miterlimit="10" x1="136.874" y1="7.917" x2="645.5" y2="7.917" id="line62"/>
<line fill="none" stroke="#9900CC" stroke-width="2" stroke-miterlimit="10" x1="136.874" y1="7" x2="136.874" y2="41.167" id="line64"/>
<line fill="none" stroke="#00B050" stroke-width="2" stroke-miterlimit="10" x1="554" y1="286.167" x2="554" y2="371.916" id="line66"/>
<g id="g68">
	<g id="g70">
		
			<line fill="none" stroke="#00B050" stroke-width="2" stroke-miterlimit="10" x1="568.448" y1="285.708" x2="553.125" y2="285.708" id="line72"/>
		<g id="g74">
			<polygon fill="#00B050" points="578.334,285.708 564.406,280.018 567.71,285.708 564.406,291.398    " id="polygon76"/>
		</g>
	</g>
</g>
<g id="g78">
	<g id="g80">
		
			<line fill="none" stroke="#00B050" stroke-width="2" stroke-miterlimit="10" x1="568.448" y1="332.041" x2="553.125" y2="332.041" id="line82"/>
		<g id="g84">
			<polygon fill="#00B050" points="578.334,332.041 564.406,326.35 567.71,332.041 564.406,337.73    " id="polygon86"/>
		</g>
	</g>
</g>
<line fill="none" stroke="#298BF7" stroke-width="2" stroke-miterlimit="10" x1="458.997" y1="202.833" x2="458.997" y2="91.335" id="line88"/>
<g id="g90">
	<g id="g92">
		<line fill="none" stroke="#298BF7" stroke-width="2" stroke-miterlimit="10" x1="448.219" y1="201.582" x2="460" y2="201.582" id="line94"/>
		<g id="g96">
			<polygon fill="#298BF7" points="438.334,201.582 452.263,207.273 448.957,201.582 452.263,195.892    " id="polygon98"/>
		</g>
	</g>
</g>
<line fill="none" stroke="#9900CC" stroke-width="2" stroke-miterlimit="10" x1="267.367" y1="163.751" x2="267.352" y2="124.5" id="line100"/>
<g id="g102">
	<g id="g104">
		
			<line fill="none" stroke="#298BF7" stroke-width="2" stroke-miterlimit="10" x1="447.885" y1="164.248" x2="459.666" y2="164.248" id="line106"/>
		<g id="g108">
			<polygon fill="#298BF7" points="438,164.248 451.93,169.939 448.625,164.248 451.93,158.558    " id="polygon110"/>
		</g>
	</g>
</g>
<g id="g112">
	<g id="g114">
		<line fill="none" stroke="#298BF7" stroke-width="2" stroke-miterlimit="10" x1="448.219" y1="123.581" x2="460" y2="123.581" id="line116"/>
		<g id="g118">
			<polygon fill="#298BF7" points="438.334,123.581 452.263,129.272 448.957,123.581 452.263,117.891    " id="polygon120"/>
		</g>
	</g>
</g>
<line fill="none" stroke="#D53939" stroke-width="2" stroke-miterlimit="10" x1="481.166" y1="236.418" x2="481.166" y2="87.501" id="line122"/>
<rect id="rect179" x="12.333" y="367" fill="#F2F2F2" stroke="#A6A6A6" stroke-width="2" stroke-miterlimit="10" width="694.667" height="36"/>
<text id="text147" transform="matrix(1 0 0 1 224.925 389)" font-family="'Liberation Sans','LiberationSans-Regular',Arial,sans-serif" font-size="12">Enfranchised people (normally 18 years and older)</text>

<text transform="matrix(1 0 0 1 378.0002 449.5)" font-family="'Liberation Sans','LiberationSans-Regular',Arial,sans-serif" font-size="9" id="text126">but one-third of the seats are up for election every two years </text>

<text id="text289_1_" transform="matrix(1 0 0 1 195.0725 479.873)" font-family="'Liberation Sans','LiberationSans-Regular',Arial,sans-serif" font-size="11">approves</text>

<g id="g129">
	<g id="g131">
		
			<line fill="none" stroke="#9900CC" stroke-width="2" stroke-miterlimit="10" x1="179.194" y1="477.124" x2="165.232" y2="477.134" id="line133"/>
		<g id="g136">
			<polygon fill="#9900CC" points="187.667,477.118 175.724,472.248 178.561,477.125 175.731,482.004    " id="polygon138"/>
		</g>
	</g>
</g>
<g id="g140">
	<g id="g142">
		
			<line fill="none" stroke="#CC3333" stroke-width="2" stroke-miterlimit="10" x1="264.885" y1="236.633" x2="481.166" y2="236.618" id="line144"/>
		<g id="g146">
			<polygon fill="#CC3333" points="255.001,236.634 268.93,242.324 265.624,236.633 268.929,230.942    " id="polygon148"/>
		</g>
	</g>
</g>
<rect id="rect177_1_" x="583" y="209.125" fill="#BFBFBF" stroke="#7F7F7F" stroke-width="2" stroke-miterlimit="10" width="124" height="29.25"/>
<text id="text211_1_" transform="matrix(1 0 0 1 608.2366 227.3789)" font-family="'Liberation Sans','LiberationSans-Regular',Arial,sans-serif" font-size="13">State Courts</text>

<g id="polyline227_1_">
	<g id="g153">
		<g id="g155">
			
				<line fill="none" stroke="#8E8E8E" stroke-width="2" stroke-miterlimit="10" stroke-dasharray="4.6221" x1="377.778" y1="367.833" x2="377.778" y2="363.211" id="line157"/>
		</g>
		<g id="g159">
			<g id="g161">
				
					<line fill="none" stroke="#8E8E8E" stroke-width="2" stroke-miterlimit="10" x1="377.778" y1="354.157" x2="377.778" y2="348.157" id="line163"/>
				
					<line fill="none" stroke="#8E8E8E" stroke-width="2" stroke-miterlimit="10" stroke-dasharray="10.5727,10.5727" x1="377.778" y1="337.585" x2="377.778" y2="279.435" id="line165"/>
				
					<line fill="none" stroke="#8E8E8E" stroke-width="2" stroke-miterlimit="10" x1="377.778" y1="274.148" x2="377.778" y2="268.148" id="line167"/>
			</g>
		</g>
		<g id="g169">
			<polyline fill="none" stroke="#8E8E8E" stroke-width="2" stroke-miterlimit="10" points="377.778,263.623 377.778,259      382.459,259    " id="polyline171"/>
		</g>
		<g id="g173">
			<g id="g175">
				<line fill="none" stroke="#8E8E8E" stroke-width="2" stroke-miterlimit="10" x1="392.185" y1="259" x2="398.185" y2="259" id="line177"/>
				
					<line fill="none" stroke="#8E8E8E" stroke-width="2" stroke-miterlimit="10" stroke-dasharray="13.2523,13.2523" x1="411.437" y1="259" x2="510.829" y2="259" id="line179"/>
				<line fill="none" stroke="#8E8E8E" stroke-width="2" stroke-miterlimit="10" x1="517.455" y1="259" x2="523.455" y2="259" id="line181"/>
			</g>
		</g>
		<g id="g183">
			
				<line fill="none" stroke="#8E8E8E" stroke-width="2" stroke-miterlimit="10" stroke-dasharray="4.6836" x1="528.317" y1="259" x2="533" y2="259" id="line185"/>
		</g>
	</g>
</g>

<rect id="rect175" x="583" y="271.5" fill="#FDE2AD" stroke="#FDAB3D" stroke-width="2" stroke-miterlimit="10" width="124" height="29"/>
<text id="text211" transform="matrix(1 0 0 1 596.2366 290.3789)" font-family="'Liberation Sans','LiberationSans-Regular',Arial,sans-serif" font-size="13">State Legislature</text>

<path fill="#FDE2AD" stroke="#FDAB3D" stroke-width="2" stroke-miterlimit="10" d="M250.5,242.926c0,3.907-5.217,7.074-11.651,7.074  h-93.697c-6.434,0-11.651-3.167-11.651-7.074v-13.852c0-3.907,5.217-7.074,11.651-7.074h93.697c6.434,0,11.651,3.167,11.651,7.074  V242.926z" id="path199"/>
<text id="text193_1_" transform="matrix(1 0 0 1 161.0271 240)" font-family="'Liberation Sans','LiberationSans-Regular',Arial,sans-serif" font-size="13">Legislation</text>

<g id="g202">
	<g id="g204">
		<line fill="none" stroke="#298BF7" stroke-width="2" stroke-miterlimit="10" x1="154.121" y1="206.115" x2="154.108" y2="154.5" id="line206"/>
		<g id="g208">
			<polygon fill="#298BF7" points="154.124,216 159.812,202.07 154.121,205.376 148.43,202.072    " id="polygon210"/>
		</g>
	</g>
</g>
<rect id="rect175_1_" x="13" y="37" fill="#FDE2AD" stroke="#FDAB3D" stroke-width="2" stroke-miterlimit="10" width="247" height="120.5"/>
<polygon id="polygon155" fill="#93C5FB" stroke="#4E9FF8" stroke-width="2" stroke-miterlimit="10" points="253,90 139,90   194.46,43 "/>
<rect id="rect165" x="20" y="97.392" fill="#FDE2AD" stroke="#FDAB3D" stroke-width="2" stroke-miterlimit="10" width="111.021" height="52.608"/>
<text transform="matrix(1 0 0 1 184.3538 66.5996)" font-family="'Liberation Sans','LiberationSans-Regular',Arial,sans-serif" font-size="13" id="text215">Vice</text>

<text transform="matrix(1 0 0 1 169.5393 82.1992)" font-family="'Liberation Sans','LiberationSans-Regular',Arial,sans-serif" font-size="13" id="text218">President</text>

<text transform="matrix(1 0 0 1 47.9749 120.5)" font-family="'Liberation Sans','LiberationSans-Regular',Arial,sans-serif" font-size="13" id="text220">House of</text>

<text transform="matrix(1 0 0 1 26.0208 136.0996)" font-family="'Liberation Sans','LiberationSans-Regular',Arial,sans-serif" font-size="13" id="text222">Representatives</text>

<text id="text259" transform="matrix(1 0 0 1 120.9998 126.5)" font-family="'Liberation Sans','LiberationSans-Regular',Arial,sans-serif" font-size="7.2367">1</text>

<text id="text203_1_" transform="matrix(1 0 0 1 22.5881 59.3271)" font-family="'Liberation Sans','LiberationSans-Regular',Arial,sans-serif" font-size="13">Congress</text>

<g id="g226">
	<g id="g228">
		<line fill="none" stroke="#298BF7" stroke-width="2" stroke-miterlimit="10" x1="565.449" y1="57.953" x2="496.233" y2="57.967" id="line230"/>
		<g id="g232">
			<polygon fill="#298BF7" points="575.334,57.951 561.405,52.262 564.71,57.953 561.406,63.644    " id="polygon234"/>
		</g>
	</g>
</g>
<g id="g236">
	<g id="g238">
		<line fill="none" stroke="#9900CC" stroke-width="2" stroke-miterlimit="10" x1="644.616" y1="19.615" x2="644.608" y2="8" id="line240"/>
		<g id="g242">
			<polygon fill="#9900CC" points="644.623,29.5 650.305,15.567 644.615,18.876 638.923,15.575    " id="polygon244"/>
		</g>
	</g>
</g>
<g id="g246">
	<g id="g248">
		
			<line fill="none" stroke="#9900CC" stroke-width="2" stroke-miterlimit="10" x1="295.209" y1="123.745" x2="251.865" y2="123.758" id="line250"/>
		<g id="g252">
			<polygon fill="#9900CC" points="305.094,123.742 291.163,118.055 294.47,123.745 291.167,129.437    " id="polygon254"/>
		</g>
	</g>
</g>
<g id="g256">
	<g id="g258">
		
			<line fill="none" stroke="#9900CC" stroke-width="2" stroke-miterlimit="10" x1="295.814" y1="164.746" x2="267.367" y2="164.758" id="line260"/>
		<g id="g262">
			<polygon fill="#9900CC" points="305.699,164.742 291.768,159.056 295.075,164.747 291.772,170.438    " id="polygon264"/>
		</g>
	</g>
</g>
<rect id="rect167" x="138.396" y="97.5" fill="#FDE2AD" stroke="#FDAB3D" stroke-width="2" stroke-miterlimit="10" width="114.604" height="52.608"/>
<text id="text193" transform="matrix(1 0 0 1 174.8606 128.5)" font-family="'Liberation Sans','LiberationSans-Regular',Arial,sans-serif" font-size="13">Senate</text>

<text id="text259_1_" transform="matrix(1 0 0 1 218.3333 121.833)" font-family="'Liberation Sans','LiberationSans-Regular',Arial,sans-serif" font-size="7.2367">2</text>

<polygon id="polygon157" fill="#93C5FB" stroke="#4E9FF8" stroke-width="2" stroke-miterlimit="10" points="546,90 418,90   480.271,38 "/>
<text id="text187" transform="matrix(1 0 0 1 449.6506 80.5996)" font-family="'Liberation Sans','LiberationSans-Regular',Arial,sans-serif" font-size="13">President</text>

<text id="text271" transform="matrix(1 0 0 1 506.0002 72.334)" font-family="'Liberation Sans','LiberationSans-Regular',Arial,sans-serif" font-size="7.2367">3</text>

<line fill="none" stroke="#D53939" stroke-width="2" stroke-miterlimit="10" x1="482.041" y1="122.959" x2="645.667" y2="122.959" id="line272"/>
<line fill="none" stroke="#D53939" stroke-width="2" stroke-miterlimit="10" x1="644.499" y1="122.959" x2="644.499" y2="86.833" id="line274"/>
<rect id="rect177" x="582" y="34.5" fill="#BFBFBF" stroke="#7F7F7F" stroke-width="2" stroke-miterlimit="10" width="125" height="56"/>
<text id="text199" transform="matrix(1 0 0 1 599.9241 66.7793)" font-family="'Liberation Sans','LiberationSans-Regular',Arial,sans-serif" font-size="13">Supreme Court</text>

<g id="g278">
	<g id="g280">
		<line fill="none" stroke="#00B050" stroke-width="2" stroke-miterlimit="10" x1="506" y1="105.385" x2="506" y2="278.167" id="line282"/>
		<g id="g284">
			<polygon fill="#00B050" points="506,95.5 500.309,109.429 506,106.124 511.691,109.429    " id="polygon286"/>
		</g>
	</g>
</g>
<text id="text223_1_" transform="matrix(1 0 0 1 367.2424 485.3477)" font-family="'Liberation Sans','LiberationSans-Regular',Arial,sans-serif" font-size="9">5: Presidential vetos can be overridden by a two-thirds vote in each house.</text>

<text id="text259_2_" transform="matrix(1 0 0 1 311.6667 457.166)" font-family="'Liberation Sans','LiberationSans-Regular',Arial,sans-serif" font-size="7.2367">5</text>

<line fill="none" stroke="#00B050" stroke-width="2" stroke-miterlimit="10" x1="394.334" y1="285.168" x2="283.333" y2="285.168" id="line290"/>
<g id="g292">
	<g id="g294">
		<line fill="none" stroke="#00B050" stroke-width="2" stroke-miterlimit="10" x1="232.751" y1="58.422" x2="284.094" y2="58.409" id="line296"/>
		<g id="g298">
			<polygon fill="#00B050" points="222.866,58.424 236.796,64.112 233.49,58.422 236.793,52.73    " id="polygon300"/>
		</g>
	</g>
</g>
<g id="g302">
	<g id="g304">
		
			<line fill="none" stroke="#00B050" stroke-width="2" stroke-miterlimit="10" x1="506.475" y1="314.022" x2="506.488" y2="368.167" id="line306"/>
		<g id="g308">
			<polygon fill="#00B050" points="506.472,304.138 500.783,318.068 506.475,314.762 512.165,318.065    " id="polygon310"/>
		</g>
	</g>
</g>
<rect x="391.666" y="271.834" fill="#F2F2F2" stroke="#A6A6A6" stroke-width="2" stroke-miterlimit="10" width="126.334" height="27.166" id="rect312"/>
<text id="text203_5_" transform="matrix(1 0 0 1 407.4524 289.9941)" font-family="'Liberation Sans','LiberationSans-Regular',Arial,sans-serif" font-size="13">Electoral College</text>

<text transform="matrix(1 0 0 1 377.0002 496.5)" font-family="'Liberation Sans','LiberationSans-Regular',Arial,sans-serif" font-size="9" id="text315">The Supreme Court can declare laws as unconstitutional and thereby repeal them</text>

<text id="text259_3_" transform="matrix(1 0 0 1 496.0002 383.166)" font-family="'Liberation Sans','LiberationSans-Regular',Arial,sans-serif" font-size="7.2367">4</text>

</svg>